<?xml version="1.0" standalone="no"?>
<!DOCTYPE svg PUBLIC "-//W3C//DTD SVG 1.1//EN" "http://www.w3.org/Graphics/SVG/1.1/DTD/svg11.dtd">
<svg xmlns:xlink="http://www.w3.org/1999/xlink" width="18.555ex" height="5.676ex" style="vertical-align: -2.171ex;" viewBox="0 -1508.9 7989 2443.8" xmlns="http://www.w3.org/2000/svg">
<defs>
<path stroke-width="10" id="E1-MJMAINI-41" d="M85 46Q112 48 132 56T161 73T176 92T185 104Q185 106 353 407T524 709Q527 716 551 716Q568 716 572 712Q573 711 574 710Q576 708 594 384Q613 54 617 52H618Q626 46 672 46H689Q696 41 696 36Q696 13 683 0H670Q639 2 557 2Q526 2 500 2T459 2T441 1Q425 1 425 10Q425 12 427 24Q428 27 429 31T430 36T432 40T434 43T437 45T443 46T450 46Q514 46 514 69Q514 74 511 136L506 209H292L260 152Q222 84 222 74Q222 48 264 46Q280 46 280 35Q280 33 278 21Q275 7 272 4T259 0Q256 0 232 1T159 2Q135 2 109 1T78 0Q58 0 58 10Q58 14 61 26T66 40Q68 46 85 46ZM504 260Q503 263 496 407T486 553L466 520Q446 486 402 406L318 256Q318 255 411 255H504V260Z"></path>
<path stroke-width="10" id="E1-MJMAINI-43" d="M395 -21Q279 -21 215 56T150 244Q150 402 265 543Q339 630 421 667T562 704Q596 704 604 703Q627 698 647 689T679 669T699 649T711 633T716 627L753 665Q790 704 792 704Q793 705 798 705Q812 705 812 698Q812 694 780 561Q744 422 744 421Q742 416 739 415T721 413H705Q699 419 699 426Q701 432 701 444Q705 464 705 493Q705 524 700 551T681 604T643 644T583 659Q480 659 387 570Q321 502 287 397T252 213Q252 123 297 74Q347 24 421 24Q500 24 564 89T653 240Q656 253 659 255T677 257Q700 257 700 248Q700 242 694 222Q681 183 656 143T593 65T504 3T395 -21Z"></path>
<path stroke-width="10" id="E1-MJMAIN-3D" d="M56 347Q56 360 70 367H707Q722 359 722 347Q722 336 708 328L390 327H72Q56 332 56 347ZM56 153Q56 168 72 173H708Q722 163 722 153Q722 140 707 133H70Q56 140 56 153Z"></path>
<path stroke-width="10" id="E1-MJMAINI-54" d="M178 437Q173 442 171 446Q171 451 238 654Q243 670 250 677H681H762Q792 677 799 676T806 667Q806 661 788 553T768 444Q768 437 746 437Q727 437 723 445Q723 450 729 492T736 562Q736 589 728 602T693 624Q675 630 622 630H595Q575 630 571 629T564 623Q562 621 492 342T422 59Q422 48 502 46H542Q548 38 548 37T545 19Q541 6 535 0H517Q475 2 357 2Q315 2 279 2T223 2T198 1Q179 1 179 9Q179 14 182 24Q187 42 190 44Q194 46 206 46H232Q289 47 301 49T326 65L395 344Q465 619 465 626Q465 629 462 629Q456 631 411 631Q364 631 336 625T288 597T255 549T224 467Q215 442 210 437H178Z"></path>
<path stroke-width="10" id="E1-MJMAINI-50" d="M62 0Q55 7 55 11Q55 27 62 41Q66 46 96 46Q132 47 143 50T160 62Q162 66 231 344T301 626Q301 627 300 629V631Q294 637 239 637H221Q215 642 215 645T217 664Q221 677 227 683H404H431H502Q578 683 615 675T684 636Q729 595 729 531Q729 462 671 396T524 308Q499 302 404 301H318L288 182Q258 63 258 55T310 46Q341 46 343 40Q345 37 342 21Q337 3 333 1Q330 0 321 0Q317 0 301 0T255 1T190 2Q97 2 72 0H62ZM626 555V562Q626 620 552 635Q546 636 481 637Q466 637 450 637T423 636T412 636Q401 635 398 627Q396 622 361 484Q353 452 344 416T330 362L325 344Q325 342 390 342H427Q523 342 567 386Q596 415 611 473T626 555Z"></path>
<path stroke-width="10" id="E1-MJMAIN-2B" d="M56 237T56 250T70 270H369V420L370 570Q380 583 389 583Q402 583 409 568V270H707Q722 262 722 250T707 230H409V-68Q401 -82 391 -82H389H387Q375 -82 369 -68V230H70Q56 237 56 250Z"></path>
<path stroke-width="10" id="E1-MJMAINI-4E" d="M633 637Q624 637 621 639T617 650Q617 670 630 683H641Q682 680 736 680Q836 680 845 683H853Q860 676 860 672Q858 647 848 637H832Q764 633 750 598Q746 590 673 300Q656 230 638 156T610 44L600 7Q598 0 576 0H559Q553 6 448 297L342 588Q341 588 279 336T216 81Q216 49 274 46Q293 46 295 40Q297 37 294 21Q293 19 292 16T291 11T290 7T289 4T287 2T284 1T280 1T275 0T263 0T229 1T167 2Q91 2 70 0H61Q54 7 54 11T57 27Q61 41 64 43T83 46Q146 50 164 84Q167 90 235 362L303 634Q300 635 253 637H220Q214 643 214 645T216 664Q220 677 226 683H314Q386 683 397 683T410 677Q412 675 501 428L591 179Q591 178 592 180T595 189T600 209T610 246T624 303T645 385Q698 595 698 606Q698 618 683 627T633 637Z"></path>
<path stroke-width="10" id="E1-MJMATHI-50" d="M287 628Q287 635 230 637Q206 637 199 638T192 648Q192 649 194 659Q200 679 203 681T397 683Q587 682 600 680Q664 669 707 631T751 530Q751 453 685 389Q616 321 507 303Q500 302 402 301H307L277 182Q247 66 247 59Q247 55 248 54T255 50T272 48T305 46H336Q342 37 342 35Q342 19 335 5Q330 0 319 0Q316 0 282 1T182 2Q120 2 87 2T51 1Q33 1 33 11Q33 13 36 25Q40 41 44 43T67 46Q94 46 127 49Q141 52 146 61Q149 65 218 339T287 628ZM645 554Q645 567 643 575T634 597T609 619T560 635Q553 636 480 637Q463 637 445 637T416 636T404 636Q391 635 386 627Q384 621 367 550T332 412T314 344Q314 342 395 342H407H430Q542 342 590 392Q617 419 631 471T645 554Z"></path>
<path stroke-width="10" id="E1-MJMATHI-4E" d="M234 637Q231 637 226 637Q201 637 196 638T191 649Q191 676 202 682Q204 683 299 683Q376 683 387 683T401 677Q612 181 616 168L670 381Q723 592 723 606Q723 633 659 637Q635 637 635 648Q635 650 637 660Q641 676 643 679T653 683Q656 683 684 682T767 680Q817 680 843 681T873 682Q888 682 888 672Q888 650 880 642Q878 637 858 637Q787 633 769 597L620 7Q618 0 599 0Q585 0 582 2Q579 5 453 305L326 604L261 344Q196 88 196 79Q201 46 268 46H278Q284 41 284 38T282 19Q278 6 272 0H259Q228 2 151 2Q123 2 100 2T63 2T46 1Q31 1 31 10Q31 14 34 26T39 40Q41 46 62 46Q130 49 150 85Q154 91 221 362L289 634Q287 635 234 637Z"></path>
</defs>
<g stroke="currentColor" fill="currentColor" stroke-width="0" transform="matrix(1 0 0 -1 0 0)">
 <use xlink:href="#E1-MJMAINI-41" x="0" y="0"></use>
 <use xlink:href="#E1-MJMAINI-43" x="748" y="0"></use>
 <use xlink:href="#E1-MJMAINI-43" x="1469" y="0"></use>
 <use xlink:href="#E1-MJMAIN-3D" x="2467" y="0"></use>
<g transform="translate(3528,0)">
<g transform="translate(120,0)">
<rect stroke="none" width="4220" height="60" x="0" y="220"></rect>
<g transform="translate(60,676)">
 <use xlink:href="#E1-MJMAINI-54" x="0" y="0"></use>
 <use xlink:href="#E1-MJMAINI-50" x="721" y="0"></use>
 <use xlink:href="#E1-MJMAIN-2B" x="1626" y="0"></use>
<g transform="translate(2631,0)">
 <use xlink:href="#E1-MJMAINI-54" x="0" y="0"></use>
 <use xlink:href="#E1-MJMAINI-4E" x="721" y="0"></use>
</g>
</g>
<g transform="translate(672,-713)">
 <use xlink:href="#E1-MJMATHI-50" x="0" y="0"></use>
 <use xlink:href="#E1-MJMAIN-2B" x="978" y="0"></use>
 <use xlink:href="#E1-MJMATHI-4E" x="1983" y="0"></use>
</g>
</g>
</g>
</g>
</svg>