<?xml version="1.0" standalone="no"?>
<!DOCTYPE svg PUBLIC "-//W3C//DTD SVG 1.1//EN" "http://www.w3.org/Graphics/SVG/1.1/DTD/svg11.dtd">
<svg xmlns:xlink="http://www.w3.org/1999/xlink" width="25.494ex" height="5.676ex" style="vertical-align: -2.171ex;" viewBox="0 -1508.9 10976.6 2443.8" xmlns="http://www.w3.org/2000/svg">
<defs>
<path stroke-width="10" id="E1-MJMAINI-54" d="M178 437Q173 442 171 446Q171 451 238 654Q243 670 250 677H681H762Q792 677 799 676T806 667Q806 661 788 553T768 444Q768 437 746 437Q727 437 723 445Q723 450 729 492T736 562Q736 589 728 602T693 624Q675 630 622 630H595Q575 630 571 629T564 623Q562 621 492 342T422 59Q422 48 502 46H542Q548 38 548 37T545 19Q541 6 535 0H517Q475 2 357 2Q315 2 279 2T223 2T198 1Q179 1 179 9Q179 14 182 24Q187 42 190 44Q194 46 206 46H232Q289 47 301 49T326 65L395 344Q465 619 465 626Q465 629 462 629Q456 631 411 631Q364 631 336 625T288 597T255 549T224 467Q215 442 210 437H178Z"></path>
<path stroke-width="10" id="E1-MJMAINI-50" d="M62 0Q55 7 55 11Q55 27 62 41Q66 46 96 46Q132 47 143 50T160 62Q162 66 231 344T301 626Q301 627 300 629V631Q294 637 239 637H221Q215 642 215 645T217 664Q221 677 227 683H404H431H502Q578 683 615 675T684 636Q729 595 729 531Q729 462 671 396T524 308Q499 302 404 301H318L288 182Q258 63 258 55T310 46Q341 46 343 40Q345 37 342 21Q337 3 333 1Q330 0 321 0Q317 0 301 0T255 1T190 2Q97 2 72 0H62ZM626 555V562Q626 620 552 635Q546 636 481 637Q466 637 450 637T423 636T412 636Q401 635 398 627Q396 622 361 484Q353 452 344 416T330 362L325 344Q325 342 390 342H427Q523 342 567 386Q596 415 611 473T626 555Z"></path>
<path stroke-width="10" id="E1-MJMAINI-52" d="M62 0Q55 7 55 11Q55 27 62 41Q66 46 96 46Q132 47 143 50T160 62Q162 66 231 344T301 626Q301 627 300 629V631Q294 637 239 637H221Q215 642 215 645T217 664Q221 677 227 683H386Q554 682 569 679Q571 678 580 676Q643 662 680 623T717 533Q717 473 667 420T528 337L538 330Q563 314 578 286T594 228Q594 212 588 147T581 65Q581 36 589 26T616 16H618Q637 16 652 37Q668 57 677 94Q679 105 701 105T723 95Q723 89 717 72T698 33T662 -5T610 -22Q555 -22 513 3T471 88Q471 107 486 168T502 244Q502 303 452 320Q445 322 382 323H320L288 192Q255 63 255 55T307 46Q338 46 340 40Q342 37 339 21Q335 3 330 1Q326 0 320 0Q317 0 306 0T265 1T190 2Q99 2 73 0H62ZM612 558Q612 566 612 568T610 581T603 597T590 611T567 625T532 635Q526 636 470 637Q458 637 445 637T422 636T412 636Q402 635 397 627L390 598Q383 570 373 532T354 455T337 389T330 361Q356 360 384 360H415Q483 360 527 382Q557 399 574 424T604 498Q612 533 612 558Z"></path>
<path stroke-width="10" id="E1-MJMAIN-3D" d="M56 347Q56 360 70 367H707Q722 359 722 347Q722 336 708 328L390 327H72Q56 332 56 347ZM56 153Q56 168 72 173H708Q722 163 722 153Q722 140 707 133H70Q56 140 56 153Z"></path>
<path stroke-width="10" id="E1-MJMATHI-50" d="M287 628Q287 635 230 637Q206 637 199 638T192 648Q192 649 194 659Q200 679 203 681T397 683Q587 682 600 680Q664 669 707 631T751 530Q751 453 685 389Q616 321 507 303Q500 302 402 301H307L277 182Q247 66 247 59Q247 55 248 54T255 50T272 48T305 46H336Q342 37 342 35Q342 19 335 5Q330 0 319 0Q316 0 282 1T182 2Q120 2 87 2T51 1Q33 1 33 11Q33 13 36 25Q40 41 44 43T67 46Q94 46 127 49Q141 52 146 61Q149 65 218 339T287 628ZM645 554Q645 567 643 575T634 597T609 619T560 635Q553 636 480 637Q463 637 445 637T416 636T404 636Q391 635 386 627Q384 621 367 550T332 412T314 344Q314 342 395 342H407H430Q542 342 590 392Q617 419 631 471T645 554Z"></path>
<path stroke-width="10" id="E1-MJMAIN-2B" d="M56 237T56 250T70 270H369V420L370 570Q380 583 389 583Q402 583 409 568V270H707Q722 262 722 250T707 230H409V-68Q401 -82 391 -82H389H387Q375 -82 369 -68V230H70Q56 237 56 250Z"></path>
<path stroke-width="10" id="E1-MJMAINI-46" d="M299 623Q299 630 292 631T247 634H219Q213 640 213 642T215 661Q218 673 225 680H724Q731 676 731 669Q731 665 717 557T701 447Q699 440 678 440H663Q656 444 656 452Q656 457 659 485T663 538Q663 586 644 607T566 633Q564 633 535 633T486 634H458Q404 634 399 625Q396 620 364 492L332 363H380Q446 365 464 373Q496 389 514 458Q518 477 523 479Q527 480 541 480H556Q563 475 563 470Q563 467 532 339T498 207Q496 200 475 200H460Q453 207 453 212Q454 213 456 225T461 254T464 278Q464 304 445 310T369 317H321L289 190Q257 66 257 59Q257 54 261 52T283 48T337 46Q348 46 352 46T360 45T366 42T368 37Q368 32 365 23Q360 4 355 2Q352 1 342 1Q336 1 297 1T199 2Q138 2 106 2T71 1H68Q54 1 54 11Q54 38 66 45L70 46Q75 46 82 46T96 46Q131 47 142 50T159 62L194 200Q229 337 264 477T299 623Z"></path>
<path stroke-width="10" id="E1-MJMAINI-4E" d="M633 637Q624 637 621 639T617 650Q617 670 630 683H641Q682 680 736 680Q836 680 845 683H853Q860 676 860 672Q858 647 848 637H832Q764 633 750 598Q746 590 673 300Q656 230 638 156T610 44L600 7Q598 0 576 0H559Q553 6 448 297L342 588Q341 588 279 336T216 81Q216 49 274 46Q293 46 295 40Q297 37 294 21Q293 19 292 16T291 11T290 7T289 4T287 2T284 1T280 1T275 0T263 0T229 1T167 2Q91 2 70 0H61Q54 7 54 11T57 27Q61 41 64 43T83 46Q146 50 164 84Q167 90 235 362L303 634Q300 635 253 637H220Q214 643 214 645T216 664Q220 677 226 683H314Q386 683 397 683T410 677Q412 675 501 428L591 179Q591 178 592 180T595 189T600 209T610 246T624 303T645 385Q698 595 698 606Q698 618 683 627T633 637Z"></path>
</defs>
<g stroke="currentColor" fill="currentColor" stroke-width="0" transform="matrix(1 0 0 -1 0 0)">
 <use xlink:href="#E1-MJMAINI-54" x="0" y="0"></use>
 <use xlink:href="#E1-MJMAINI-50" x="721" y="0"></use>
 <use xlink:href="#E1-MJMAINI-52" x="1404" y="0"></use>
 <use xlink:href="#E1-MJMAIN-3D" x="2415" y="0"></use>
<g transform="translate(3476,0)">
<g transform="translate(120,0)">
<rect stroke="none" width="1524" height="60" x="0" y="220"></rect>
<g transform="translate(60,676)">
 <use xlink:href="#E1-MJMAINI-54" x="0" y="0"></use>
 <use xlink:href="#E1-MJMAINI-50" x="721" y="0"></use>
</g>
 <use xlink:href="#E1-MJMATHI-50" x="384" y="-713"></use>
</g>
</g>
 <use xlink:href="#E1-MJMAIN-3D" x="5518" y="0"></use>
<g transform="translate(6579,0)">
<g transform="translate(120,0)">
<rect stroke="none" width="4157" height="60" x="0" y="220"></rect>
<g transform="translate(1376,676)">
 <use xlink:href="#E1-MJMAINI-54" x="0" y="0"></use>
 <use xlink:href="#E1-MJMAINI-50" x="721" y="0"></use>
</g>
<g transform="translate(60,-713)">
 <use xlink:href="#E1-MJMAINI-54" x="0" y="0"></use>
 <use xlink:href="#E1-MJMAINI-50" x="721" y="0"></use>
 <use xlink:href="#E1-MJMAIN-2B" x="1626" y="0"></use>
<g transform="translate(2631,0)">
 <use xlink:href="#E1-MJMAINI-46" x="0" y="0"></use>
 <use xlink:href="#E1-MJMAINI-4E" x="658" y="0"></use>
</g>
</g>
</g>
</g>
</g>
</svg>