<?xml version="1.0" standalone="no"?>
<!DOCTYPE svg PUBLIC "-//W3C//DTD SVG 1.1//EN" "http://www.w3.org/Graphics/SVG/1.1/DTD/svg11.dtd">
<svg xmlns:xlink="http://www.w3.org/1999/xlink" width="37.135ex" height="5.676ex" style="vertical-align: -2.171ex; margin-right: -0.223ex;" viewBox="0 -1508.9 15988.6 2443.8" xmlns="http://www.w3.org/2000/svg">
<defs>
<path stroke-width="10" id="E1-MJMAINI-46" d="M299 623Q299 630 292 631T247 634H219Q213 640 213 642T215 661Q218 673 225 680H724Q731 676 731 669Q731 665 717 557T701 447Q699 440 678 440H663Q656 444 656 452Q656 457 659 485T663 538Q663 586 644 607T566 633Q564 633 535 633T486 634H458Q404 634 399 625Q396 620 364 492L332 363H380Q446 365 464 373Q496 389 514 458Q518 477 523 479Q527 480 541 480H556Q563 475 563 470Q563 467 532 339T498 207Q496 200 475 200H460Q453 207 453 212Q454 213 456 225T461 254T464 278Q464 304 445 310T369 317H321L289 190Q257 66 257 59Q257 54 261 52T283 48T337 46Q348 46 352 46T360 45T366 42T368 37Q368 32 365 23Q360 4 355 2Q352 1 342 1Q336 1 297 1T199 2Q138 2 106 2T71 1H68Q54 1 54 11Q54 38 66 45L70 46Q75 46 82 46T96 46Q131 47 142 50T159 62L194 200Q229 337 264 477T299 623Z"></path>
<path stroke-width="10" id="E1-MJMAINI-50" d="M62 0Q55 7 55 11Q55 27 62 41Q66 46 96 46Q132 47 143 50T160 62Q162 66 231 344T301 626Q301 627 300 629V631Q294 637 239 637H221Q215 642 215 645T217 664Q221 677 227 683H404H431H502Q578 683 615 675T684 636Q729 595 729 531Q729 462 671 396T524 308Q499 302 404 301H318L288 182Q258 63 258 55T310 46Q341 46 343 40Q345 37 342 21Q337 3 333 1Q330 0 321 0Q317 0 301 0T255 1T190 2Q97 2 72 0H62ZM626 555V562Q626 620 552 635Q546 636 481 637Q466 637 450 637T423 636T412 636Q401 635 398 627Q396 622 361 484Q353 452 344 416T330 362L325 344Q325 342 390 342H427Q523 342 567 386Q596 415 611 473T626 555Z"></path>
<path stroke-width="10" id="E1-MJMAINI-52" d="M62 0Q55 7 55 11Q55 27 62 41Q66 46 96 46Q132 47 143 50T160 62Q162 66 231 344T301 626Q301 627 300 629V631Q294 637 239 637H221Q215 642 215 645T217 664Q221 677 227 683H386Q554 682 569 679Q571 678 580 676Q643 662 680 623T717 533Q717 473 667 420T528 337L538 330Q563 314 578 286T594 228Q594 212 588 147T581 65Q581 36 589 26T616 16H618Q637 16 652 37Q668 57 677 94Q679 105 701 105T723 95Q723 89 717 72T698 33T662 -5T610 -22Q555 -22 513 3T471 88Q471 107 486 168T502 244Q502 303 452 320Q445 322 382 323H320L288 192Q255 63 255 55T307 46Q338 46 340 40Q342 37 339 21Q335 3 330 1Q326 0 320 0Q317 0 306 0T265 1T190 2Q99 2 73 0H62ZM612 558Q612 566 612 568T610 581T603 597T590 611T567 625T532 635Q526 636 470 637Q458 637 445 637T422 636T412 636Q402 635 397 627L390 598Q383 570 373 532T354 455T337 389T330 361Q356 360 384 360H415Q483 360 527 382Q557 399 574 424T604 498Q612 533 612 558Z"></path>
<path stroke-width="10" id="E1-MJMAIN-3D" d="M56 347Q56 360 70 367H707Q722 359 722 347Q722 336 708 328L390 327H72Q56 332 56 347ZM56 153Q56 168 72 173H708Q722 163 722 153Q722 140 707 133H70Q56 140 56 153Z"></path>
<path stroke-width="10" id="E1-MJMATHI-4E" d="M234 637Q231 637 226 637Q201 637 196 638T191 649Q191 676 202 682Q204 683 299 683Q376 683 387 683T401 677Q612 181 616 168L670 381Q723 592 723 606Q723 633 659 637Q635 637 635 648Q635 650 637 660Q641 676 643 679T653 683Q656 683 684 682T767 680Q817 680 843 681T873 682Q888 682 888 672Q888 650 880 642Q878 637 858 637Q787 633 769 597L620 7Q618 0 599 0Q585 0 582 2Q579 5 453 305L326 604L261 344Q196 88 196 79Q201 46 268 46H278Q284 41 284 38T282 19Q278 6 272 0H259Q228 2 151 2Q123 2 100 2T63 2T46 1Q31 1 31 10Q31 14 34 26T39 40Q41 46 62 46Q130 49 150 85Q154 91 221 362L289 634Q287 635 234 637Z"></path>
<path stroke-width="10" id="E1-MJMAIN-2B" d="M56 237T56 250T70 270H369V420L370 570Q380 583 389 583Q402 583 409 568V270H707Q722 262 722 250T707 230H409V-68Q401 -82 391 -82H389H387Q375 -82 369 -68V230H70Q56 237 56 250Z"></path>
<path stroke-width="10" id="E1-MJMAINI-54" d="M178 437Q173 442 171 446Q171 451 238 654Q243 670 250 677H681H762Q792 677 799 676T806 667Q806 661 788 553T768 444Q768 437 746 437Q727 437 723 445Q723 450 729 492T736 562Q736 589 728 602T693 624Q675 630 622 630H595Q575 630 571 629T564 623Q562 621 492 342T422 59Q422 48 502 46H542Q548 38 548 37T545 19Q541 6 535 0H517Q475 2 357 2Q315 2 279 2T223 2T198 1Q179 1 179 9Q179 14 182 24Q187 42 190 44Q194 46 206 46H232Q289 47 301 49T326 65L395 344Q465 619 465 626Q465 629 462 629Q456 631 411 631Q364 631 336 625T288 597T255 549T224 467Q215 442 210 437H178Z"></path>
<path stroke-width="10" id="E1-MJMAINI-4E" d="M633 637Q624 637 621 639T617 650Q617 670 630 683H641Q682 680 736 680Q836 680 845 683H853Q860 676 860 672Q858 647 848 637H832Q764 633 750 598Q746 590 673 300Q656 230 638 156T610 44L600 7Q598 0 576 0H559Q553 6 448 297L342 588Q341 588 279 336T216 81Q216 49 274 46Q293 46 295 40Q297 37 294 21Q293 19 292 16T291 11T290 7T289 4T287 2T284 1T280 1T275 0T263 0T229 1T167 2Q91 2 70 0H61Q54 7 54 11T57 27Q61 41 64 43T83 46Q146 50 164 84Q167 90 235 362L303 634Q300 635 253 637H220Q214 643 214 645T216 664Q220 677 226 683H314Q386 683 397 683T410 677Q412 675 501 428L591 179Q591 178 592 180T595 189T600 209T610 246T624 303T645 385Q698 595 698 606Q698 618 683 627T633 637Z"></path>
<path stroke-width="10" id="E1-MJMAIN-31" d="M213 578L200 573Q186 568 160 563T102 556H83V602H102Q149 604 189 617T245 641T273 663Q275 666 285 666Q294 666 302 660V361L303 61Q310 54 315 52T339 48T401 46H427V0H416Q395 3 257 3Q121 3 100 0H88V46H114Q136 46 152 46T177 47T193 50T201 52T207 57T213 61V578Z"></path>
<path stroke-width="10" id="E1-MJMAIN-2212" d="M84 237T84 250T98 270H679Q694 262 694 250T679 230H98Q84 237 84 250Z"></path>
<path stroke-width="10" id="E1-MJMAINI-53" d="M198 460Q198 551 269 628T432 705Q516 705 557 644L583 673Q589 679 593 684T600 693T605 698T609 702T611 704T614 705T618 705H620Q633 705 633 698T605 577T573 459L570 456H554Q546 456 543 456T536 457T532 460T531 466Q531 469 533 489T536 532Q536 573 525 600T496 640T462 657T427 662Q369 662 325 612T281 503Q281 475 290 458T318 430T356 415T407 401T463 383Q506 360 522 323T538 258V244Q538 141 465 60T300 -22Q198 -22 152 41L143 31Q137 25 126 12T106 -10T95 -21L92 -22Q88 -22 86 -22Q81 -22 78 -20T74 -16V-14Q74 -11 132 221Q134 227 155 227H171Q177 221 177 215Q177 212 175 205T171 182T169 147Q171 99 195 70T246 33T306 25Q358 25 400 70T453 169Q455 180 455 203V210Q455 263 414 285Q409 288 347 305Q271 328 254 339Q239 350 224 371Q198 409 198 460Z"></path>
<path stroke-width="10" id="E1-MJMAINI-43" d="M395 -21Q279 -21 215 56T150 244Q150 402 265 543Q339 630 421 667T562 704Q596 704 604 703Q627 698 647 689T679 669T699 649T711 633T716 627L753 665Q790 704 792 704Q793 705 798 705Q812 705 812 698Q812 694 780 561Q744 422 744 421Q742 416 739 415T721 413H705Q699 419 699 426Q701 432 701 444Q705 464 705 493Q705 524 700 551T681 604T643 644T583 659Q480 659 387 570Q321 502 287 397T252 213Q252 123 297 74Q347 24 421 24Q500 24 564 89T653 240Q656 253 659 255T677 257Q700 257 700 248Q700 242 694 222Q681 183 656 143T593 65T504 3T395 -21Z"></path>
</defs>
<g stroke="currentColor" fill="currentColor" stroke-width="0" transform="matrix(1 0 0 -1 0 0)">
 <use xlink:href="#E1-MJMAINI-46" x="0" y="0"></use>
 <use xlink:href="#E1-MJMAINI-50" x="658" y="0"></use>
 <use xlink:href="#E1-MJMAINI-52" x="1341" y="0"></use>
 <use xlink:href="#E1-MJMAIN-3D" x="2352" y="0"></use>
<g transform="translate(3413,0)">
<g transform="translate(120,0)">
<rect stroke="none" width="1461" height="60" x="0" y="220"></rect>
<g transform="translate(60,676)">
 <use xlink:href="#E1-MJMAINI-46" x="0" y="0"></use>
 <use xlink:href="#E1-MJMAINI-50" x="658" y="0"></use>
</g>
 <use xlink:href="#E1-MJMATHI-4E" x="284" y="-713"></use>
</g>
</g>
 <use xlink:href="#E1-MJMAIN-3D" x="5392" y="0"></use>
<g transform="translate(6453,0)">
<g transform="translate(120,0)">
<rect stroke="none" width="4157" height="60" x="0" y="220"></rect>
<g transform="translate(1408,676)">
 <use xlink:href="#E1-MJMAINI-46" x="0" y="0"></use>
 <use xlink:href="#E1-MJMAINI-50" x="658" y="0"></use>
</g>
<g transform="translate(60,-713)">
 <use xlink:href="#E1-MJMAINI-46" x="0" y="0"></use>
 <use xlink:href="#E1-MJMAINI-50" x="658" y="0"></use>
 <use xlink:href="#E1-MJMAIN-2B" x="1563" y="0"></use>
<g transform="translate(2568,0)">
 <use xlink:href="#E1-MJMAINI-54" x="0" y="0"></use>
 <use xlink:href="#E1-MJMAINI-4E" x="721" y="0"></use>
</g>
</g>
</g>
</g>
 <use xlink:href="#E1-MJMAIN-3D" x="11128" y="0"></use>
 <use xlink:href="#E1-MJMAIN-31" x="12189" y="0"></use>
 <use xlink:href="#E1-MJMAIN-2212" x="12916" y="0"></use>
<g transform="translate(13921,0)">
 <use xlink:href="#E1-MJMAINI-53" x="0" y="0"></use>
 <use xlink:href="#E1-MJMAINI-50" x="567" y="0"></use>
 <use xlink:href="#E1-MJMAINI-43" x="1250" y="0"></use>
</g>
</g>
</svg>