<?xml version="1.0" standalone="no"?>
<!DOCTYPE svg PUBLIC "-//W3C//DTD SVG 1.1//EN" "http://www.w3.org/Graphics/SVG/1.1/DTD/svg11.dtd">
<svg xmlns:xlink="http://www.w3.org/1999/xlink" width="50.806ex" height="6.843ex" style="vertical-align: -3.338ex;" viewBox="0 -1508.9 21874.8 2946.1" xmlns="http://www.w3.org/2000/svg">
<defs>
<path stroke-width="10" id="E1-MJMATHI-54" d="M40 437Q21 437 21 445Q21 450 37 501T71 602L88 651Q93 669 101 677H569H659Q691 677 697 676T704 667Q704 661 687 553T668 444Q668 437 649 437Q640 437 637 437T631 442L629 445Q629 451 635 490T641 551Q641 586 628 604T573 629Q568 630 515 631Q469 631 457 630T439 622Q438 621 368 343T298 60Q298 48 386 46Q418 46 427 45T436 36Q436 31 433 22Q429 4 424 1L422 0Q419 0 415 0Q410 0 363 1T228 2Q99 2 64 0H49Q43 6 43 9T45 27Q49 40 55 46H83H94Q174 46 189 55Q190 56 191 56Q196 59 201 76T241 233Q258 301 269 344Q339 619 339 625Q339 630 310 630H279Q212 630 191 624Q146 614 121 583T67 467Q60 445 57 441T43 437H40Z"></path>
<path stroke-width="10" id="E1-MJMATHI-50" d="M287 628Q287 635 230 637Q206 637 199 638T192 648Q192 649 194 659Q200 679 203 681T397 683Q587 682 600 680Q664 669 707 631T751 530Q751 453 685 389Q616 321 507 303Q500 302 402 301H307L277 182Q247 66 247 59Q247 55 248 54T255 50T272 48T305 46H336Q342 37 342 35Q342 19 335 5Q330 0 319 0Q316 0 282 1T182 2Q120 2 87 2T51 1Q33 1 33 11Q33 13 36 25Q40 41 44 43T67 46Q94 46 127 49Q141 52 146 61Q149 65 218 339T287 628ZM645 554Q645 567 643 575T634 597T609 619T560 635Q553 636 480 637Q463 637 445 637T416 636T404 636Q391 635 386 627Q384 621 367 550T332 412T314 344Q314 342 395 342H407H430Q542 342 590 392Q617 419 631 471T645 554Z"></path>
<path stroke-width="10" id="E1-MJMAIN-D7" d="M630 29Q630 9 609 9Q604 9 587 25T493 118L389 222L284 117Q178 13 175 11Q171 9 168 9Q160 9 154 15T147 29Q147 36 161 51T255 146L359 250L255 354Q174 435 161 449T147 471Q147 480 153 485T168 490Q173 490 175 489Q178 487 284 383L389 278L493 382Q570 459 587 475T609 491Q630 491 630 471Q630 464 620 453T522 355L418 250L522 145Q606 61 618 48T630 29Z"></path>
<path stroke-width="10" id="E1-MJMATHI-4E" d="M234 637Q231 637 226 637Q201 637 196 638T191 649Q191 676 202 682Q204 683 299 683Q376 683 387 683T401 677Q612 181 616 168L670 381Q723 592 723 606Q723 633 659 637Q635 637 635 648Q635 650 637 660Q641 676 643 679T653 683Q656 683 684 682T767 680Q817 680 843 681T873 682Q888 682 888 672Q888 650 880 642Q878 637 858 637Q787 633 769 597L620 7Q618 0 599 0Q585 0 582 2Q579 5 453 305L326 604L261 344Q196 88 196 79Q201 46 268 46H278Q284 41 284 38T282 19Q278 6 272 0H259Q228 2 151 2Q123 2 100 2T63 2T46 1Q31 1 31 10Q31 14 34 26T39 40Q41 46 62 46Q130 49 150 85Q154 91 221 362L289 634Q287 635 234 637Z"></path>
<path stroke-width="10" id="E1-MJMAIN-2212" d="M84 237T84 250T98 270H679Q694 262 694 250T679 230H98Q84 237 84 250Z"></path>
<path stroke-width="10" id="E1-MJMATHI-46" d="M48 1Q31 1 31 11Q31 13 34 25Q38 41 42 43T65 46Q92 46 125 49Q139 52 144 61Q146 66 215 342T285 622Q285 629 281 629Q273 632 228 634H197Q191 640 191 642T193 659Q197 676 203 680H742Q749 676 749 669Q749 664 736 557T722 447Q720 440 702 440H690Q683 445 683 453Q683 454 686 477T689 530Q689 560 682 579T663 610T626 626T575 633T503 634H480Q398 633 393 631Q388 629 386 623Q385 622 352 492L320 363H375Q378 363 398 363T426 364T448 367T472 374T489 386Q502 398 511 419T524 457T529 475Q532 480 548 480H560Q567 475 567 470Q567 467 536 339T502 207Q500 200 482 200H470Q463 206 463 212Q463 215 468 234T473 274Q473 303 453 310T364 317H309L277 190Q245 66 245 60Q245 46 334 46H359Q365 40 365 39T363 19Q359 6 353 0H336Q295 2 185 2Q120 2 86 2T48 1Z"></path>
<path stroke-width="10" id="E1-MJMAIN-28" d="M94 250Q94 319 104 381T127 488T164 576T202 643T244 695T277 729T302 750H315H319Q333 750 333 741Q333 738 316 720T275 667T226 581T184 443T167 250T184 58T225 -81T274 -167T316 -220T333 -241Q333 -250 318 -250H315H302L274 -226Q180 -141 137 -14T94 250Z"></path>
<path stroke-width="10" id="E1-MJMAIN-2B" d="M56 237T56 250T70 270H369V420L370 570Q380 583 389 583Q402 583 409 568V270H707Q722 262 722 250T707 230H409V-68Q401 -82 391 -82H389H387Q375 -82 369 -68V230H70Q56 237 56 250Z"></path>
<path stroke-width="10" id="E1-MJMAIN-29" d="M60 749L64 750Q69 750 74 750H86L114 726Q208 641 251 514T294 250Q294 182 284 119T261 12T224 -76T186 -143T145 -194T113 -227T90 -246Q87 -249 86 -250H74Q66 -250 63 -250T58 -247T55 -238Q56 -237 66 -225Q221 -64 221 250T66 725Q56 737 55 738Q55 746 60 749Z"></path>
<path stroke-width="10" id="E1-MJSZ1-221A" d="M263 249Q264 249 315 130T417 -108T470 -228L725 302Q981 837 982 839Q989 850 1001 850Q1008 850 1013 844T1020 832V826L741 243Q645 43 540 -176Q479 -303 469 -324T453 -348Q449 -350 436 -350L424 -349L315 -96Q206 156 205 156L171 130Q138 104 137 104L111 130L263 249Z"></path>
</defs>
<g stroke="currentColor" fill="currentColor" stroke-width="0" transform="matrix(1 0 0 -1 0 0)">
<g transform="translate(120,0)">
<rect stroke="none" width="21634" height="60" x="0" y="220"></rect>
<g transform="translate(5864,676)">
 <use xlink:href="#E1-MJMATHI-54" x="0" y="0"></use>
 <use xlink:href="#E1-MJMATHI-50" x="709" y="0"></use>
 <use xlink:href="#E1-MJMAIN-D7" x="1687" y="0"></use>
 <use xlink:href="#E1-MJMATHI-54" x="2692" y="0"></use>
 <use xlink:href="#E1-MJMATHI-4E" x="3401" y="0"></use>
 <use xlink:href="#E1-MJMAIN-2212" x="4516" y="0"></use>
 <use xlink:href="#E1-MJMATHI-46" x="5521" y="0"></use>
 <use xlink:href="#E1-MJMATHI-50" x="6275" y="0"></use>
 <use xlink:href="#E1-MJMAIN-D7" x="7254" y="0"></use>
 <use xlink:href="#E1-MJMATHI-46" x="8259" y="0"></use>
 <use xlink:href="#E1-MJMATHI-4E" x="9013" y="0"></use>
</g>
<g transform="translate(60,-946)">
 <use xlink:href="#E1-MJSZ1-221A" x="0" y="6"></use>
<rect stroke="none" width="20509" height="60" x="1005" y="806"></rect>
<g transform="translate(1005,0)">
 <use xlink:href="#E1-MJMAIN-28" x="0" y="0"></use>
 <use xlink:href="#E1-MJMATHI-54" x="394" y="0"></use>
 <use xlink:href="#E1-MJMATHI-50" x="1103" y="0"></use>
 <use xlink:href="#E1-MJMAIN-2B" x="2081" y="0"></use>
 <use xlink:href="#E1-MJMATHI-46" x="3086" y="0"></use>
 <use xlink:href="#E1-MJMATHI-50" x="3840" y="0"></use>
 <use xlink:href="#E1-MJMAIN-29" x="4596" y="0"></use>
 <use xlink:href="#E1-MJMAIN-28" x="4990" y="0"></use>
 <use xlink:href="#E1-MJMATHI-54" x="5384" y="0"></use>
 <use xlink:href="#E1-MJMATHI-50" x="6093" y="0"></use>
 <use xlink:href="#E1-MJMAIN-2B" x="7071" y="0"></use>
 <use xlink:href="#E1-MJMATHI-46" x="8076" y="0"></use>
 <use xlink:href="#E1-MJMATHI-4E" x="8830" y="0"></use>
 <use xlink:href="#E1-MJMAIN-29" x="9723" y="0"></use>
 <use xlink:href="#E1-MJMAIN-28" x="10117" y="0"></use>
 <use xlink:href="#E1-MJMATHI-54" x="10511" y="0"></use>
 <use xlink:href="#E1-MJMATHI-4E" x="11220" y="0"></use>
 <use xlink:href="#E1-MJMAIN-2B" x="12336" y="0"></use>
 <use xlink:href="#E1-MJMATHI-46" x="13341" y="0"></use>
 <use xlink:href="#E1-MJMATHI-50" x="14095" y="0"></use>
 <use xlink:href="#E1-MJMAIN-29" x="14851" y="0"></use>
 <use xlink:href="#E1-MJMAIN-28" x="15245" y="0"></use>
 <use xlink:href="#E1-MJMATHI-54" x="15639" y="0"></use>
 <use xlink:href="#E1-MJMATHI-4E" x="16348" y="0"></use>
 <use xlink:href="#E1-MJMAIN-2B" x="17463" y="0"></use>
 <use xlink:href="#E1-MJMATHI-46" x="18468" y="0"></use>
 <use xlink:href="#E1-MJMATHI-4E" x="19222" y="0"></use>
 <use xlink:href="#E1-MJMAIN-29" x="20115" y="0"></use>
</g>
</g>
</g>
</g>
</svg>